<?xml version="1.0" standalone="no"?>
<!DOCTYPE svg PUBLIC "-//W3C//DTD SVG 20010904//EN"
 "http://www.w3.org/TR/2001/REC-SVG-20010904/DTD/svg10.dtd">
<svg version="1.0" xmlns="http://www.w3.org/2000/svg"
 width="1000.000000pt" height="421.000000pt" viewBox="0 0 1000.000000 421.000000"
 preserveAspectRatio="xMidYMid meet">
<g transform="translate(0.000000,421.000000) scale(0.100000,-0.100000)"
fill="#F93C3C" stroke="none">
<path d="M1140 2505 l0 -1705 -570 0 -570 0 0 -400 0 -400 800 0 800 0 1 28
c0 23 32 51 250 217 244 186 250 190 302 193 l53 3 252 -193 c220 -169 251
-196 252 -220 l0 -28 1330 0 1330 0 0 28 c1 23 32 50 240 210 l238 182 56 0
56 0 0 -210 0 -210 500 0 500 0 0 1705 0 1705 860 0 860 0 0 -465 0 -465 -785
0 c-432 0 -785 -2 -785 -5 0 -2 353 -549 785 -1215 507 -782 785 -1219 785
-1235 l0 -25 626 0 c500 0 624 3 617 13 -6 6 -242 370 -526 808 l-517 797 0
56 0 56 133 0 132 0 270 208 270 207 3 796 2 796 -270 208 c-244 187 -270 210
-270 236 l0 29 -1595 0 -1595 0 0 -215 0 -215 -53 0 -52 0 -243 186 c-218 167
-242 189 -242 215 l0 29 -1330 0 -1330 0 0 -29 c0 -26 -24 -48 -235 -210 -233
-180 -235 -181 -285 -181 l-50 0 0 210 0 210 -500 0 -500 0 0 -1705z m3760
695 l0 -210 530 0 530 0 0 -445 0 -445 -55 0 -54 0 -247 190 -247 190 -1088 0
-1089 0 0 465 0 465 860 0 860 0 0 -210z m-2419 -1290 l234 -180 1093 0 1092
0 0 -465 0 -465 -860 0 -860 0 0 210 0 210 -520 0 -520 0 0 435 0 435 54 0 54
0 233 -180z"/>
</g>
</svg>
